# xmcd CD database file
#
# Track frame offsets:
#	150
#	20201
#	33585
#	53814
#	74998
#	89210
#	109636
#	135447
#	154547
#	171299
#	202066
#	222150
#	239838
#	266834
#	283026
#
# Disc length: 4033 seconds
#
# Revision: 0
# Processed by: cddbd v1.5.1PL2 Copyright (c) Steve Scherf et al.
# Submitted via: CDex 1.51
#
DISCID=f40fbf0f
DTITLE=Blues Festival Lucerne - 2005 Part II
DYEAR=2005
DGENRE=Blues
TTITLE0=Roy Rogers and The Delta - Ever Since I Lost You
TTITLE1=The James Cotton Quartet - The Coach's Better Days
TTITLE2=The Carter Brothers - Since You've Come Into My Life
TTITLE3=Bob Margolin's All Star Blues Jam - Last Time
TTITLE4=Lil'ed and the Blues Imperials - Natural Man
TTITLE5=Thornetta Davis and Detroit R'n'R - Take Me In Your Arms
TTITLE6=Willi Big Eyes Smith and Bob Margolin - River's Invitation
TTITLE7=Billy Flynn and Billy Boy Arnold - This Time
TTITLE8=Diamond Jim Greene - Ramblin'on My Mind
TTITLE9=The Philipps Walker Big Band - Linda Lu
TTITLE10=Charlie Musselwhite Band - Blues Overtook Me
TTITLE11=Rico McFarland and The James Cotton Quartet - Rockin'Chair
TTITLE12=Ronnie Baker Brooks - Where Do I Stand In Line
TTITLE13=Mookie Brill and Bob Margolins - My New Baby Owns A Whiskey Store
TTITLE14=Bob Stroger and Billy Boy Arnold - Talk To Me Mama
EXTD=YEAR: 2005
EXTT0=
EXTT1=
EXTT2=
EXTT3=
EXTT4=
EXTT5=
EXTT6=
EXTT7=
EXTT8=
EXTT9=
EXTT10=
EXTT11=
EXTT12=
EXTT13=
EXTT14=
PLAYORDER=
